<svg viewBox="0 0 24 24" xmlns="http://www.w3.org/2000/svg"><path d="m12 19.5h.00000006c-.661702.00081899-1.2917-.283391-1.729-.78l-9.811-11.152-.00000017-.0000002c-.655691-.781417-.553771-1.94642.227646-2.60211.755826-.634218 1.87666-.562391 2.54535.163114l8.579 9.752-.00000001-.00000001c.0910114.10383.248961.114221.352791.0232092.00823647-.00721965.0159896-.0149728.0232092-.0232092l8.579-9.752.00000009-.00000011c.655689-.781418 1.82069-.883342 2.60211-.227653.781418.655689.883342 1.82069.227653 2.60211-.0184185.0219503-.0373454.0434691-.0567652.0645388l-9.808 11.148.00000003-.00000003c-.438047.497811-1.0689.78337-1.732.784z"/></svg>