<svg viewBox="0 0 24 24" xmlns="http://www.w3.org/2000/svg"><path d="m12 23.5h-.0000005c6.35127.00000028 11.5-5.14872 11.5-11.5.00000028-6.35127-5.14872-11.5-11.5-11.5-6.35127-.00000028-11.5 5.14872-11.5 11.5l-.00000047-.00042147c.00693152 6.34831 5.15127 11.493 11.4996 11.5004zm-4.95-15.035.00000001.00000001c-.397252-.383679-.408255-1.01675-.0245764-1.414.383679-.397252 1.01675-.408255 1.414-.0245764.00833389.00804914.0165273.0162425.0245764.0245764l3.359 3.359c.0975674.0972627.255433.0972627.353-.00000001l3.359-3.359-.00000002.00000002c.383679-.397252 1.01675-.408255 1.414-.0245765.397252.383679.408255 1.01675.0245765 1.414-.00804914.00833389-.0162425.0165273-.0245764.0245764l-3.359 3.359-.00000001.00000001c-.0972627.0975674-.0972627.255433.00000001.353l3.359 3.359.00000001.00000001c.397252.383679.408255 1.01675.0245764 1.414-.383679.397252-1.01675.408255-1.414.0245764-.00833389-.00804914-.0165273-.0162425-.0245764-.0245764l-3.359-3.359-.00000001-.00000001c-.0975674-.0972627-.255433-.0972627-.353.00000002l-3.359 3.359.00000001-.00000001c-.397252.383679-1.03032.372676-1.414-.0245764-.374282-.387523-.374282-1.0019-.00000002-1.38942l3.359-3.359c.0972627-.0975674.0972627-.255433 0-.353z"/></svg>