<svg viewBox="0 0 24 24" xmlns="http://www.w3.org/2000/svg"><path d="m23.146 5.4-2.792-2.8c-.195015-.195509-.511597-.195909-.707106-.00089379-.0002983.00029755-.00059623.00059548-.00089378.00089378l-11.792 11.8c-.195015.195509-.511597.195909-.707106.00089379-.0002983-.00029755-.00059623-.00059548-.00089378-.00089378l-2.792-2.8c-.195015-.195509-.511597-.195909-.707106-.00089379-.0002983.00029755-.00059623.00059548-.00089378.00089378l-2.792 2.8.00000003-.00000003c-.195191.19525-.195191.51175-.00000005.707l6.292 6.293-.00000004-.00000004c.195015.195509.511597.195909.707106.00089385.0002983-.00029755.00059623-.00059548.00089378-.00089378l15.292-15.3.00000001-.00000001c.190571-.194422.190571-.505578-.00000001-.7z" fill="#000"/></svg>