<svg viewBox="0 0 24 24" xmlns="http://www.w3.org/2000/svg"><g><path d="m11.278 6.134v.00000003c.0136397-.0980372-.0318459-.19489-.116-.247-1.262-.787-4.129-2.028-9.655-2.1h.00000001c-.276115-.003866-.503085.216836-.506951.492951-.0000329.00234952-.00004923.00469925-.000049.007049v15.765.00004893c-.00000004.273432.219644.49615.493049.499952 5.151.066 7.994 1.15 9.385 1.932l-.00000003-.00000002c.0766758.0445083.171324.0445083.248.00000004.0768091-.0448207.124026-.12707.124-.216v-15.822l-.00000005.00000196c.00287372-.104477.0122085-.208676.0279509-.312z"/><path d="m19.25 17.446-.00000001.00000432c-.00057801.365315-.26395.677221-.624004.738996l-.00000056.00000011c-1.62117.31539-3.11378 1.10064-4.292 2.258l-.00000051.00000056c-.393796.437154-.738209.916381-1.027 1.429-.0669219.120769-.0232704.272922.0974984.339844.0712435.0394783.157253.0417753.230502.00615582l.00000203-.00000086c2.80152-1.19215 5.82884-1.76062 8.872-1.666h.00000002c.273405-.00382805.493027-.226568.493-.5v-15.765-.000049c0-.276142-.223858-.5-.5-.5-.00234975 0-.00469948.00001656-.007049.00004969-1.114.014-2.114.079-3.02.176h-.00000002c-.12705.013802-.223236.121202-.223.249z"/><path d="m17.568 16.9h.00000001c.107615-.0307687.181853-.129073.182-.241v-14.925.00000131c.00014301-.138071-.11167-.250116-.249741-.250259-.0294265-.00003048-.0586272.00513447-.0862578.0152571l-.00000002.00000001c-1.16781.391912-2.2242 1.05901-3.08 1.945l.00000006-.00000006c-.836053.809931-1.3911 1.86606-1.584 3.014v12.852-.00000213c-.00011678.138071.111717.250095.249788.250211.0720873.00006097.140692-.0309983.18821-.0852076l.023-.026-.00000079.00000082c1.19027-1.2342 2.69788-2.11621 4.357-2.549z"/></g></svg>