<?xml version="1.0" encoding="UTF-8"?><svg version="1.1" viewBox="0 0 24 24" xmlns="http://www.w3.org/2000/svg" xmlns:xlink="http://www.w3.org/1999/xlink"><path d="M1.382 11.384l11.778 11.569 .017.016 9.08087e-08 8.81867e-08c.784383.761735 2.0351.752381 2.808-.0210002l7.065-7.063 -8.61145e-09 8.60732e-09c.781236-.780861.781541-2.04719.000679638-2.82843 -.00420781-.00420983-.00843439-.00840086-.0126796-.012573l-11.738-11.544c-.018-.019-.035-.037-.054-.054l8.00918e-09 7.32851e-09c-.655629-.599909-1.50296-.947558-2.391-.981h-6.492l-8.74228e-08 1.77636e-15c-1.10457 4.82823e-08-2 .895431-2 2 0 0 0 8.88178e-16 0 8.88178e-16l.007 6.495 1.56885e-08 3.82165e-07c.0370664.902919.396044 1.76276 1.012 2.424Zm3.481-4.919l1.68754e-14 2.26494e-07c-1.25089e-07-.828427.671573-1.5 1.5-1.5 .828427-1.25089e-07 1.5.671573 1.5 1.5 1.25089e-07.828427-.671573 1.5-1.5 1.5l6.55671e-08-1.15463e-14c-.828427 1.61301e-07-1.5-.671573-1.5-1.5 -1.5099e-14-7.64678e-08-2.30926e-14-1.50026e-07-2.66454e-14-2.26494e-07Z" fill="#000"></path></svg>