<?xml version="1.0" encoding="UTF-8" standalone="no"?><!DOCTYPE svg PUBLIC "-//W3C//DTD SVG 1.1//EN" "http://www.w3.org/Graphics/SVG/1.1/DTD/svg11.dtd"><svg width="100%" height="100%" viewBox="0 0 24 24" version="1.1" xmlns="http://www.w3.org/2000/svg" xmlns:xlink="http://www.w3.org/1999/xlink" xml:space="preserve" xmlns:serif="http://www.serif.com/" style="fill-rule:evenodd;clip-rule:evenodd;stroke-linejoin:round;stroke-miterlimit:2;"><g><rect x="0" y="0" width="24" height="24" style="fill:none;"/><path d="M23.478,8.32c0.021,0.124 0.031,0.25 0.031,0.376l-0.018,9.8c-0,1.383 -1.121,2.504 -2.504,2.504c-4.652,0 -17.996,0 -17.996,-0c-1.38,0 -2.5,-1.12 -2.5,-2.5l-0,-12.935c-0,-0.864 0.701,-1.565 1.565,-1.565l0.127,0c0.17,-0 0.308,-0.138 0.308,-0.308l-0,0c0.01,-0.458 0.262,-1.692 1.688,-1.692c6.201,-0 4.619,-0 5.41,-0c1.788,-0 1.791,1.692 1.791,1.692c0,0.082 0.033,0.16 0.09,0.218c0.058,0.058 0.136,0.09 0.218,0.09l8.896,0c0.864,0 1.565,0.701 1.565,1.565l0,0.19l-18.188,-0.005c-0.525,-0 -1.187,0.049 -1.558,0.419c-0.37,0.371 -0.419,1.033 -0.419,1.557c-0,3.242 -0,10.788 -0,10.788c-0,0.414 0.336,0.75 0.75,0.75c0.414,-0 0.75,-0.336 0.75,-0.75c-0,-0 0.018,-7.147 0.018,-10.388c-0,-0.127 0.05,-0.248 0.139,-0.337c0.09,-0.089 0.211,-0.14 0.337,-0.14l18.573,0.006c0.431,0 0.797,0.279 0.927,0.665Z"/></g></svg>