<svg width="24" height="24" viewBox="0 0 24 24" fill="none" xmlns="http://www.w3.org/2000/svg">
<g clip-path="url(#clip0)">
<circle cx="18" cy="6" r="5" stroke="black" stroke-width="2"/>
<path d="M18.6462 5.81538V3.6923C18.6462 3.32307 18.3693 2.95384 17.9078 2.95384C17.4462 2.95384 17.1693 3.32307 17.1693 3.6923V6.0923C17.1693 6.27692 17.2616 6.46153 17.3539 6.55384L19.2001 8.30769C19.477 8.58461 19.9385 8.58461 20.2155 8.30769C20.4924 8.03077 20.4924 7.56923 20.2155 7.2923L18.6462 5.81538Z" fill="black"/>
<path d="M6.44473 6.16774C6.77738 5.90223 7.26125 5.95795 7.5255 6.2922C7.63341 6.4287 7.69223 6.59784 7.69241 6.77217V9.71875C19.8554 10.2351 20 22.0993 20 22.2307C19.998 22.6576 19.652 23.002 19.2272 23C18.8532 22.9982 18.5347 22.7264 18.4723 22.3559C18.4585 22.2786 17.1616 14.3459 7.69241 13.9688V17.3118C7.6922 17.7387 7.34764 18.0845 6.92281 18.0843C6.73184 18.0842 6.54773 18.0127 6.4063 17.8838L0.252504 12.2631C-0.0622023 11.9763 -0.0859766 11.4875 0.199402 11.1713C0.227538 11.1401 0.258159 11.1113 0.290964 11.0851L6.44473 6.16774Z" fill="black"/>
</g>
<defs>
<clipPath id="clip0">
<rect width="24" height="24" fill="white"/>
</clipPath>
</defs>
</svg>
