<?xml version="1.0" encoding="UTF-8"?><svg version="1.1" viewBox="0 0 24 24" xmlns="http://www.w3.org/2000/svg" xmlns:xlink="http://www.w3.org/1999/xlink"><!--Generated by IJSVG (https://github.com/iconjar/IJSVG)--><path d="M12,23.5l-5.02681e-07,-1.06581e-14c6.35127,2.77623e-07 11.5,-5.14872 11.5,-11.5c2.77623e-07,-6.35127 -5.14872,-11.5 -11.5,-11.5c-6.35127,-2.77623e-07 -11.5,5.14872 -11.5,11.5l-4.67909e-07,-0.000421473c0.00693152,6.34831 5.15127,11.493 11.4996,11.5004Zm-6.5,-12l1.06581e-14,1.50996e-07c-8.33927e-08,-0.552285 0.447715,-1 1,-1h11l-4.37114e-08,1.77636e-15c0.552285,-2.41411e-08 1,0.447715 1,1v1v0c0,0.552285 -0.447715,1 -1,1h-11l-4.37114e-08,-1.77636e-15c-0.552285,-2.41411e-08 -1,-0.447715 -1,-1c0,0 0,0 0,0Z" fill="#000"></path></svg>