<svg width="24" height="24" viewBox="0 0 24 24" fill="none" xmlns="http://www.w3.org/2000/svg">
<g clip-path="url(#clip0)">
<path fill-rule="evenodd" clip-rule="evenodd" d="M22 10.9706V15C22 15.2761 21.7761 15.5 21.5 15.5H17.5C16.3954 15.5 15.5 16.3954 15.5 17.5V21.5C15.5 21.7761 15.2761 22 15 22H2.5C2.22386 22 2 21.7761 2 21.5V2.5C2 2.22386 2.22386 2 2.5 2H11.1716L13.1716 0H2C0.89543 0 0 0.895431 0 2V22C0 23.1046 0.89543 24 2 24H16C16.2652 23.9999 16.5195 23.8945 16.707 23.707L23.707 16.707C23.8946 16.5195 23.9999 16.2652 24 16V8.97057L22 10.9706Z" fill="#000"/>
<path d="M9.10899 15.07V15.07C9.17272 15.07 9.23585 15.0577 9.29499 15.034L12.83 13.62V13.62C12.8932 13.5947 12.951 13.5573 13 13.51L20.812 5.7V5.7C21.0072 5.50475 21.0072 5.18825 20.812 4.993L18.69 2.868V2.868C18.4919 2.67968 18.181 2.67968 17.983 2.868L10.17 10.681V10.681C10.122 10.7289 10.0842 10.7861 10.059 10.849L8.64499 14.385V14.385C8.54282 14.6415 8.66796 14.9323 8.92451 15.0345C8.98321 15.0579 9.04581 15.0699 9.10899 15.07H9.10899Z" fill="#000"/>
<path d="M21.519 4.281V4.281C21.7142 4.47619 22.0307 4.47619 22.226 4.281L23.287 3.22V3.22C24.0678 2.439 24.0678 1.173 23.287 0.392001V0.392001C22.4956 -0.363303 21.2504 -0.363303 20.459 0.392001L19.4 1.454V1.454C19.2048 1.64925 19.2048 1.96575 19.4 2.161L21.519 4.281Z" fill="#000"/>
</g>
<defs>
<clipPath id="clip0">
<rect width="24" height="24" fill="white"/>
</clipPath>
</defs>
</svg>
