<svg width="24" height="24" viewBox="0 0 24 24" fill="none" xmlns="http://www.w3.org/2000/svg">
<g clip-path="url(#clip0)">
<path d="M22 2.75088e-07H2C0.89543 3.2337e-07 0 0.895431 0 2V22H0C-1.66785e-07 23.1046 0.89543 24 2 24H16C16.2652 23.9999 16.5195 23.8945 16.707 23.707L23.707 16.707C23.8946 16.5195 23.9999 16.2652 24 16V2C24 0.89543 23.1046 0 22 0V2.75088e-07ZM2 2.5C2 2.22386 2.22386 2 2.5 2H21.5C21.7761 2 22 2.22386 22 2.5V15C22 15.2761 21.7761 15.5 21.5 15.5H17.5C16.3954 15.5 15.5 16.3954 15.5 17.5V21.5C15.5 21.7761 15.2761 22 15 22H2.5H2.5C2.22386 22 2 21.7761 2 21.5V2.5Z" fill="black"/>
<path d="M6.70699 9.457L7.20699 8.957C7.59729 8.56626 8.23046 8.56591 8.6212 8.95621C8.62146 8.95647 8.62172 8.95674 8.62198 8.957C9.80904 10.09 11.6769 10.09 12.864 8.957V8.957C13.2545 8.56662 13.8875 8.56662 14.278 8.957V8.957C15.4495 10.1287 17.349 10.1288 18.5206 8.95736C18.5207 8.95724 18.5209 8.95712 18.521 8.957L18.864 8.613C19.2666 8.23493 19.2865 7.60208 18.9084 7.19948C18.5303 6.79688 17.8975 6.777 17.4949 7.15506C17.4794 7.16956 17.4645 7.18455 17.45 7.2L17.106 7.544C16.7103 7.92165 16.0877 7.92165 15.692 7.544C14.5205 6.37285 12.6215 6.37285 11.45 7.544C11.0543 7.92165 10.4317 7.92165 10.036 7.544C8.86451 6.37233 6.96501 6.37217 5.79334 7.54364C5.79322 7.54376 5.7931 7.54388 5.79298 7.544L5.29298 8.044C4.9093 8.44125 4.92031 9.07432 5.31756 9.458C5.70508 9.83228 6.31946 9.83228 6.70698 9.458L6.70699 9.457Z" fill="black"/>
<path d="M6.70701 16.457L7.20701 15.957C7.59732 15.5663 8.23048 15.5659 8.62122 15.9562C8.62148 15.9565 8.62175 15.9567 8.62201 15.957C9.79351 17.1281 11.6925 17.1281 12.864 15.957C13.2477 15.5597 13.2367 14.9267 12.8394 14.543C12.4519 14.1687 11.8375 14.1687 11.45 14.543C11.0543 14.9206 10.4317 14.9206 10.036 14.543C8.86454 13.3713 6.96504 13.3712 5.79337 14.5426C5.79325 14.5428 5.79313 14.5429 5.79301 14.543L5.29301 15.043C4.90933 15.4402 4.92034 16.0733 5.31759 16.457C5.70511 16.8313 6.31949 16.8313 6.70701 16.457H6.70701Z" fill="black"/>
</g>
<defs>
<clipPath id="clip0">
<rect width="24" height="24" fill="white"/>
</clipPath>
</defs>
</svg>
