<?xml version="1.0" encoding="UTF-8" standalone="no"?><!DOCTYPE svg PUBLIC "-//W3C//DTD SVG 1.1//EN" "http://www.w3.org/Graphics/SVG/1.1/DTD/svg11.dtd"><svg width="100%" height="100%" viewBox="0 0 24 24" version="1.1" xmlns="http://www.w3.org/2000/svg" xmlns:xlink="http://www.w3.org/1999/xlink" xml:space="preserve" xmlns:serif="http://www.serif.com/" style="fill-rule:evenodd;clip-rule:evenodd;stroke-linejoin:round;stroke-miterlimit:2;"><g><rect x="0" y="0" width="24" height="24" style="fill:none;"/><path d="M24,3.393c0,-0.828 -0.672,-1.5 -1.5,-1.5l-10.848,-0c-0.828,-0 -1.5,0.672 -1.5,1.5c-0,0.828 0.672,1.5 1.5,1.5l10.848,-0c0.828,-0 1.5,-0.672 1.5,-1.5Z"/><path d="M24,11.944c0,-0.828 -0.672,-1.5 -1.5,-1.5l-10.848,-0c-0.828,-0 -1.5,0.672 -1.5,1.5c-0,0.828 0.672,1.5 1.5,1.5l10.848,-0c0.828,-0 1.5,-0.672 1.5,-1.5Z"/><path d="M24,20.495c0,-0.828 -0.672,-1.5 -1.5,-1.5l-10.848,-0c-0.828,-0 -1.5,0.672 -1.5,1.5c-0,0.828 0.672,1.5 1.5,1.5l10.848,-0c0.828,-0 1.5,-0.672 1.5,-1.5Z"/><path d="M7.274,1.93c0,-1.032 -0.838,-1.87 -1.87,-1.87l-2.593,0c-1.032,0 -1.87,0.838 -1.87,1.87l0,2.593c0,1.032 0.838,1.87 1.87,1.87l2.593,-0c1.032,-0 1.87,-0.838 1.87,-1.87l0,-2.593Z"/><path d="M6.766,9.218c-0.176,-0.176 -0.461,-0.176 -0.636,-0c-0.693,0.692 -2.318,2.317 -2.881,2.881c-0.052,0.052 -0.123,0.081 -0.197,0.081c-0.073,-0 -0.144,-0.029 -0.196,-0.081c-0.205,-0.205 -0.529,-0.529 -0.77,-0.77c-0.084,-0.085 -0.199,-0.132 -0.318,-0.132c-0.119,0 -0.234,0.047 -0.318,0.132c-0.32,0.32 -0.811,0.811 -1.132,1.131c-0.175,0.176 -0.175,0.461 0,0.637c0.631,0.63 2.023,2.022 2.538,2.537c0.108,0.109 0.284,0.109 0.393,0c0.782,-0.782 3.679,-3.679 4.648,-4.648c0.176,-0.176 0.176,-0.461 0,-0.637c-0.32,-0.32 -0.811,-0.811 -1.131,-1.131Z"/><path d="M6.766,17.352c-0.176,-0.175 -0.461,-0.175 -0.636,0c-0.692,0.692 -2.317,2.317 -2.881,2.881c-0.052,0.052 -0.123,0.081 -0.196,0.081c-0.074,0 -0.145,-0.029 -0.197,-0.081c-0.205,-0.205 -0.528,-0.529 -0.77,-0.77c-0.084,-0.084 -0.198,-0.132 -0.318,-0.132c-0.119,0 -0.234,0.048 -0.318,0.132c-0.32,0.32 -0.811,0.811 -1.131,1.132c-0.176,0.175 -0.176,0.46 -0,0.636c0.63,0.631 2.022,2.023 2.537,2.538c0.109,0.108 0.285,0.108 0.393,-0.001c0.782,-0.782 3.679,-3.679 4.649,-4.648c0.175,-0.176 0.175,-0.46 -0,-0.636c-0.321,-0.32 -0.812,-0.811 -1.132,-1.132Z"/></g></svg>