<svg viewBox="0 0 24 24" xmlns="http://www.w3.org/2000/svg"><path d="m19.883.784-.00000002-.00000001c-.37341-.156772-.804595-.0713257-1.09.216l-.616.617c-.0981335.0968348-.255866.0968348-.354 0l-1.116-1.117.00000004.00000004c-.3905-.390382-1.0235-.390382-1.414-.00000008l-1.116 1.117c-.0981335.0968348-.255866.0968348-.354 0l-1.116-1.117.00000004.00000004c-.3905-.390382-1.0235-.390382-1.414-.00000008l-1.116 1.117c-.0981335.0968348-.255866.0968348-.354 0l-1.116-1.117.00000004.00000004c-.3905-.390382-1.0235-.390382-1.414-.00000008l-1.116 1.116c-.096724.0977544-.25438.0985897-.352134.00186577-.00062521-.00061862-.00124714-.00124055-.00186577-.00186577l-.615-.616-.00000001-.00000001c-.39003-.391018-1.02319-.391818-1.41421-.00178818-.188277.187801-.293997.442861-.293788.708788v20.586l-.00000002-.00021337c.00000008.552285.447715 1 1 1 .26509-.00000004.519334-.105257.706849-.292636l.616-.616c.0981335-.0968348.255866-.0968348.354-.00000001l1.11615 1.11585-.00000006-.00000006c.3905.390382 1.0235.390382 1.414.00000012l1.116-1.116c.0981335-.0968348.255866-.0968348.354-.00000001l1.116 1.116-.00000006-.00000006c.3905.390382 1.0235.390382 1.414.00000012l1.116-1.116c.0981335-.0968348.255866-.0968348.354-.00000001l1.116 1.116-.00000006-.00000006c.3905.390382 1.0235.390382 1.414.00000012l1.116-1.116c.0981335-.0968348.255866-.0968348.354-.00000001l.616.616-.00000004-.00000004c.390583.390465 1.02375.39037 1.41421-.00021342.187419-.187475.29273-.441696.292786-.706786v-20.586l.00000004.0000579c-.00027902-.404065-.243701-.768257-.616946-.923036zm-2.883 12.966h-1-.00000003c-.414214-.00000002-.75-.335786-.75-.75.00000002-.414214.335786-.75.75-.75h1-.00000003c.414214-.00000002.75.335786.75.75.00000002.414214-.335786.75-.75.75zm.75 3.25c0 .414214-.335786.75-.75.75h-1-.00000003c-.414214-.00000002-.75-.335786-.75-.75.00000002-.414214.335786-.75.75-.75h1 .00000002c.414214.00000003.75.335786.75.75zm-.75-7.25h-1-.00000003c-.414214-.00000002-.75-.335786-.75-.75.00000002-.414214.335786-.75.75-.75h1-.00000003c.414214-.00000002.75.335786.75.75.00000002.414214-.335786.75-.75.75zm-10 4h-.00000003c-.414214-.00000002-.75-.335786-.75-.75.00000002-.414214.335786-.75.75-.75h5-.00000003c.414214-.00000002.75.335786.75.75.00000002.414214-.335786.75-.75.75zm3.75 3.25c0 .414214-.335786.75-.75.75h-3-.00000003c-.414214-.00000002-.75-.335786-.75-.75.00000002-.414214.335786-.75.75-.75h3 .00000002c.414214.00000003.75.335786.75.75zm-4.5-8v.00000011c-.00000006-.414214.335786-.75.75-.75h4-.00000003c.414214-.00000002.75.335786.75.75.00000002.414214-.335786.75-.75.75h-4-.00000003c-.414214-.00000002-.75-.335786-.75-.75z"/></svg>