<svg width="24" height="24" viewBox="0 0 24 24" fill="none" xmlns="http://www.w3.org/2000/svg">
<path d="M1.50197 7.275L7.26597 1.51C7.84341 0.930703 8.78112 0.929197 9.36042 1.50663C9.43824 1.5842 9.50718 1.67018 9.56597 1.763L13.666 8.206C15.5239 7.76367 17.4807 8.04996 19.134 9.006C19.8399 9.4181 20.078 10.3244 19.6659 11.0303C19.6018 11.1401 19.5239 11.2411 19.434 11.331L11.329 19.431C11.0033 19.7528 10.5485 19.9082 10.094 19.853C9.63881 19.7946 9.23634 19.5287 9.00397 19.133C8.04376 17.4815 7.75722 15.5234 8.20397 13.666L1.76097 9.566C1.07118 9.12748 0.867488 8.2128 1.30601 7.52301C1.36394 7.43189 1.43166 7.34739 1.50797 7.271L1.50197 7.275Z" fill="black"/>
<path d="M16.54 14.428L22.48 20.368C23.0656 20.9537 23.0656 21.9032 22.48 22.489C21.8904 23.0654 20.9485 23.0654 20.359 22.489L14.419 16.549C13.8435 15.9531 13.86 15.0035 14.4558 14.428C15.0371 13.8666 15.9587 13.8666 16.54 14.428Z" fill="black"/>
</svg>
