<?xml version="1.0" encoding="UTF-8" standalone="no"?><!DOCTYPE svg PUBLIC "-//W3C//DTD SVG 1.1//EN" "http://www.w3.org/Graphics/SVG/1.1/DTD/svg11.dtd"><svg width="100%" height="100%" viewBox="0 0 25 24" version="1.1" xmlns="http://www.w3.org/2000/svg" xmlns:xlink="http://www.w3.org/1999/xlink" xml:space="preserve" xmlns:serif="http://www.serif.com/" style="fill-rule:evenodd;clip-rule:evenodd;stroke-linejoin:round;stroke-miterlimit:2;"><g><rect x="0.259" y="0" width="24" height="24" style="fill:none;"/><path d="M17.205,16.921c0.009,-1.929 0.097,-3.587 0.261,-4.727c-0.001,-0.78 0.587,-1.348 1.334,-1.573c1.5,-0.452 2.702,-0.414 4.167,0.045c0.68,0.213 1.006,0.393 1.199,1.27c0.078,0.354 0.058,1.45 0,1.741c-0.185,0.933 -0.677,1.321 -1.426,1.408c0,0 -0.281,0.033 -0.605,0.071c-0.577,0.067 -1.044,0.501 -1.153,1.071c-0.051,0.283 -0.097,0.568 -0.138,0.855c0.738,0.104 1.299,0.738 1.299,1.497c-0,0.5 -0,1.059 -0,1.555c-0,0.79 -0.608,1.446 -1.395,1.508c-0.087,0.006 -0.175,0.013 -0.262,0.019c-0.015,0.553 -0.021,1.104 -0.022,1.649c-0,0.381 -0.309,0.69 -0.69,0.69c-0.502,0 -1.175,0 -1.665,0c-0.363,-0 -0.664,-0.281 -0.689,-0.643c-0.035,-0.505 -0.065,-1.009 -0.091,-1.51c-3.402,0.152 -6.81,0.151 -10.223,-0.003c-0.026,0.502 -0.056,1.007 -0.091,1.513c-0.025,0.362 -0.326,0.643 -0.689,0.643c-0.49,0 -1.163,0 -1.665,-0c-0.381,-0 -0.69,-0.309 -0.69,-0.69c-0.001,-0.545 -0.008,-1.096 -0.022,-1.65c-0.087,-0.007 -0.174,-0.013 -0.261,-0.019c-0.788,-0.061 -1.396,-0.718 -1.396,-1.508c-0,-0.496 -0,-1.054 0,-1.552c0,-0.759 0.561,-1.393 1.3,-1.497c-0.042,-0.288 -0.088,-0.574 -0.139,-0.857c-0.109,-0.57 -0.576,-1.004 -1.153,-1.071c-0.324,-0.038 -0.605,-0.071 -0.605,-0.071c-0.749,-0.087 -1.241,-0.475 -1.426,-1.408c-0.001,-0.002 -0.001,-0.004 0.039,-0.014c-0.149,-0.761 0.048,-1.548 0.539,-2.148c0.49,-0.6 1.223,-0.95 1.998,-0.955c1.035,-0.101 2.137,-0.136 2.789,0.061c0.748,0.225 1.336,0.793 1.335,1.573c0.164,1.141 0.252,2.8 0.261,4.73c3.33,-0.104 6.655,-0.106 9.975,-0.003Zm-8.503,-1.537c2.347,-0.051 4.69,-0.052 7.031,-0.002c0.038,-1.31 0.117,-2.442 0.235,-3.301c0.05,-1.402 1.041,-2.487 2.4,-2.896c0.695,-0.21 1.337,-0.333 1.964,-0.374c0.285,-1.372 0.572,-2.702 0.822,-3.998c0.172,-1.03 -0.083,-2.086 -0.707,-2.924c-0.625,-0.838 -1.564,-1.385 -2.6,-1.515c-3.793,-0.428 -7.597,-0.42 -11.415,0.035c-1.008,0.128 -1.923,0.652 -2.544,1.456c-0.621,0.804 -0.898,1.822 -0.767,2.83c0.204,1.413 0.451,2.843 0.703,4.299c0.871,-0.027 1.69,0.024 2.243,0.191c1.358,0.409 2.349,1.493 2.399,2.878c0.119,0.865 0.198,2.004 0.236,3.321Z"/></g></svg>